# xmcd
#
# Track frame offsets:
#	183
#	12333
#	25670
#	37245
#	49813
#	61710
#	73678
#	84770
#	97560
#	107945
#	120935
#	131323
#	142900
#	155210
#	166648
#	180990
#	192188
#	201260
#	214965
#	230020
#
# Disc length: 3219 seconds
#
# Revision: 0
# Processed by: cddbd v1.4PL0 Copyright (c) Steve Scherf et al.
# Submitted via: audiograbber 1.81.03
#
DISCID=020c9114
DTITLE=Ray Charles - Back Home
DYEAR=1993
DGENRE=Blues
TTITLE0=I Love You, I Love You (I Will Never Let You Go)
TTITLE1=Alone In This City
TTITLE2=Let's Have a Ball
TTITLE3=Rockin' Chair Blues
TTITLE4=If I Give You My Love
TTITLE5=Can't You See Darling?
TTITLE6=A Sentimental Blues
TTITLE7=You'll Never Miss The Water (Until The Well's Gone Dry)
TTITLE8=Ain't That Fine
TTITLE9=Don't Put All Your Dreams In One Basket
TTITLE10=Sittin' On Top Of The World
TTITLE11=What Have I Done
TTITLE12=Honey, Honey
TTITLE13=She's On The Ball
TTITLE14=Someday (Blues Is My Middle Name)
TTITLE15=I'll Do Anything But Work
TTITLE16=All To Myself
TTITLE17=Baby Let Me Hold Your Hand
TTITLE18=I'm Wonderin' and Wonderin'
TTITLE19=Back Home
EXTD=
EXTT0=
EXTT1=
EXTT2=
EXTT3=
EXTT4=
EXTT5=
EXTT6=
EXTT7=
EXTT8=
EXTT9=
EXTT10=
EXTT11=
EXTT12=
EXTT13=
EXTT14=
EXTT15=
EXTT16=
EXTT17=
EXTT18=
EXTT19=
PLAYORDER=
